# xmcd
#
# Track frame offsets: 
#        150
#        19175
#        38333
#        55378
#        76444
#        94032
#        112214
#        131016
#        148434
#        165434
#        185374
#        206408
#        222676
#        242957
#        256422
#
# Disc length: 3700 seconds
#
# Revision: 1
# Processed by: cddbd v1.5.2PL0 Copyright (c) Steve Scherf et al.
# Submitted via: ExactAudioCopy v1.1
#
DISCID=df0e720f
DTITLE=PROGRES - Hráme pre Vás 20 rokov
DYEAR=2012
DGENRE=Folklore
TTITLE0=20 rokov Vám hráme
TTITLE1=Skryté šťastie
TTITLE2=Prišli sme za Vami
TTITLE3=Slovo človek
TTITLE4=Milovať bez lásky
TTITLE5=Pre mojich rodičov
TTITLE6=Život je pre nás dar
TTITLE7=Jen jedenkrát
TTITLE8=Santa Marija
TTITLE9=Ruku ti podám
TTITLE10=Každý si rád zaspomína
TTITLE11=More krásnych slov
TTITLE12=Ja už viem
TTITLE13=Keď hviezda vzplanie
TTITLE14=Málo ľudí šťastie nájde
EXTD=
EXTT0=
EXTT1=
EXTT2=
EXTT3=
EXTT4=
EXTT5=
EXTT6=
EXTT7=
EXTT8=
EXTT9=
EXTT10=
EXTT11=
EXTT12=
EXTT13=
EXTT14=
PLAYORDER=
